<svg width="130" height="130" viewBox="0 0 130 130" fill="none" xmlns="http://www.w3.org/2000/svg">
<g clip-path="url(#clip0_2_158)">
<rect width="130" height="130" rx="65" fill="white"/>
<path d="M64.9996 130C50.0023 129.994 35.4682 124.803 23.8602 115.307C12.2522 105.811 4.28416 92.5936 1.30631 77.8948C-1.67155 63.1961 0.52392 47.9199 7.52068 34.6547C14.5174 21.3895 25.8852 10.9512 39.6976 5.10854C55.5823 -1.60196 73.4821 -1.72745 89.4593 4.75967C105.437 11.2468 118.182 23.8152 124.893 39.6998C131.603 55.5845 131.729 73.4844 125.242 89.4616C118.755 105.439 106.186 118.185 90.3016 124.895C82.297 128.282 73.6912 130.018 64.9996 130V130ZM64.9996 1.58635C30.0208 1.56342 1.56349 30.0207 1.56349 64.9995C1.56349 99.9784 30.0208 128.436 64.9996 128.436C99.9784 128.436 128.436 99.9784 128.436 64.9995C128.436 30.0207 99.9784 1.56342 64.9996 1.56342V1.58635Z" fill="#ED1C24"/>
<path d="M16.9687 79.5431L16.2487 79.7128L15.9643 78.525L12.2312 79.4422L12.0156 78.525L15.7488 77.6307L15.4644 76.4428L16.1845 76.2686L16.9687 79.5431Z" fill="#231F20"/>
<path d="M14.4885 84.0007L13.9152 82.2717H12.998L12.6953 81.3545L17.5658 81.4737L17.9006 82.4919L14.0666 85.4958L13.7593 84.5786L14.4885 84.0007ZM15.1076 83.5421L16.7174 82.3084H14.6903L15.1076 83.5421Z" fill="#231F20"/>
<path d="M15.4687 86.9357L16.0512 88.3116L15.3816 88.5913L14.4414 86.3533L18.6653 84.583L19.0184 85.4269L15.4687 86.9357Z" fill="#231F20"/>
<path d="M19.6056 88.5366L18.5783 89.0502L19.2662 90.4261L18.615 90.7517L17.9225 89.3759L16.8402 89.917L17.6152 91.4717L16.9456 91.8065L15.7578 89.4309L19.8854 87.3809L21.0732 89.7611L20.4036 90.0959L19.6056 88.5366Z" fill="#231F20"/>
<path d="M19.5386 96.2184L19.08 95.4296L20.6852 92.022L17.9977 93.6547L17.5391 92.8659L21.4603 90.4902L21.9189 91.2745L20.3045 94.6866L22.9966 93.0539L23.4552 93.8382L19.5386 96.2184Z" fill="#231F20"/>
<path d="M25.7973 97.0849L25.2011 97.5206L24.481 96.5346L21.3808 98.8002L20.8396 98.0572L23.9399 95.7962L23.2198 94.8102L23.8206 94.3516L25.7973 97.0849Z" fill="#231F20"/>
<path d="M23.2917 101.047C23.2091 100.8 23.1964 100.535 23.255 100.281C23.3173 100.028 23.4587 99.8019 23.6586 99.6347L24.3006 100.382C24.2352 100.44 24.1826 100.51 24.1463 100.589C24.1099 100.668 24.0906 100.754 24.0897 100.841C24.0965 101.013 24.1668 101.176 24.2869 101.3C24.3996 101.447 24.5629 101.549 24.7455 101.584C24.8213 101.598 24.8995 101.594 24.9736 101.573C25.0477 101.551 25.1157 101.513 25.172 101.46C25.2204 101.422 25.2608 101.375 25.2908 101.322C25.3207 101.268 25.3396 101.209 25.3463 101.148C25.3578 101.022 25.3422 100.896 25.3004 100.777C25.2408 100.606 25.1719 100.44 25.094 100.277C24.9841 100.044 24.8921 99.8034 24.8189 99.5568C24.7682 99.3551 24.7682 99.1439 24.8189 98.9422C24.882 98.7046 25.0203 98.4938 25.2133 98.3414C25.402 98.1736 25.637 98.0665 25.8875 98.0341C26.1352 98.0087 26.3851 98.0549 26.6075 98.1672C26.8657 98.2974 27.0937 98.4801 27.2771 98.7037C27.5573 99.0043 27.7285 99.3903 27.7632 99.7998C27.7716 99.9865 27.739 100.173 27.6677 100.345C27.5964 100.518 27.4881 100.673 27.3504 100.8L26.6946 100.029C26.7501 99.9781 26.7936 99.9155 26.8221 99.8457C26.8507 99.776 26.8635 99.7008 26.8597 99.6256C26.8487 99.4527 26.7754 99.2898 26.6533 99.1669C26.5599 99.0436 26.4245 98.9587 26.2727 98.9285C26.1987 98.9185 26.1233 98.9257 26.0525 98.9496C25.9818 98.9734 25.9174 99.0133 25.8645 99.066C25.8199 99.1008 25.7831 99.1444 25.7562 99.1941C25.7294 99.2439 25.7132 99.2986 25.7086 99.355C25.7018 99.476 25.7173 99.5973 25.7545 99.7127C25.7957 99.8365 25.8645 100.006 25.9562 100.213C26.0624 100.448 26.1528 100.69 26.2268 100.937C26.2796 101.142 26.2796 101.356 26.2268 101.561C26.1681 101.801 26.0309 102.014 25.837 102.166C25.6527 102.32 25.4313 102.423 25.1949 102.464C24.9417 102.504 24.6823 102.471 24.4474 102.368C24.1672 102.242 23.9205 102.052 23.7274 101.813C23.5319 101.59 23.3837 101.329 23.2917 101.047V101.047Z" fill="#231F20"/>
<path d="M29.4521 107.541L29.4154 106.858C28.8435 106.851 28.2957 106.626 27.8837 106.23C27.6534 106.022 27.4704 105.767 27.3471 105.482C27.2394 105.242 27.2028 104.976 27.2416 104.716C27.2941 104.446 27.4246 104.197 27.6169 104C27.8092 103.802 28.055 103.666 28.3239 103.606C28.6416 103.545 28.9699 103.572 29.2733 103.684C29.2727 103.516 29.299 103.349 29.3512 103.189C29.4064 103.052 29.4856 102.926 29.5851 102.818C29.7199 102.668 29.8952 102.562 30.0896 102.51C30.2928 102.46 30.5062 102.47 30.7042 102.538C30.9365 102.612 31.1485 102.739 31.3233 102.909C31.5104 103.07 31.654 103.275 31.7406 103.505C31.8129 103.699 31.8272 103.909 31.7819 104.111C31.7343 104.308 31.6289 104.487 31.4792 104.624L30.8234 104.024C30.9121 103.942 30.9648 103.828 30.9702 103.707C30.9659 103.652 30.9508 103.598 30.9256 103.548C30.9004 103.499 30.8657 103.454 30.8234 103.418C30.7438 103.34 30.637 103.296 30.5253 103.294C30.4722 103.292 30.4193 103.302 30.3707 103.323C30.3221 103.345 30.2792 103.377 30.2455 103.418C30.1708 103.504 30.1201 103.609 30.0988 103.721C30.073 103.891 30.0638 104.063 30.0713 104.235L30.1492 105.854H30.1813H30.2089L30.906 105.647L31.6443 106.294L30.7638 106.578C30.5803 106.642 30.4015 106.697 30.2272 106.743L30.3052 108.303L29.4521 107.541ZM29.3788 106.028L29.2962 104.446C29.1324 104.363 28.9469 104.335 28.7659 104.364C28.5849 104.392 28.4175 104.477 28.2872 104.606C28.223 104.674 28.1745 104.755 28.1452 104.844C28.1159 104.933 28.1064 105.027 28.1176 105.12C28.148 105.336 28.2616 105.532 28.434 105.666C28.6915 105.902 29.0292 106.031 29.3788 106.028V106.028Z" fill="#231F20"/>
<path d="M33.521 109.83L34.741 110.72L34.3144 111.307L32.3516 109.88L35.0437 106.175L35.7729 106.716L33.521 109.83Z" fill="#231F20"/>
<path d="M37.8883 109.059L37.2737 110.027L38.5762 110.852L38.191 111.467L36.8839 110.641L36.2327 111.669L37.7002 112.586L37.3012 113.219L35.0586 111.797L37.5076 107.922L39.7548 109.339L39.3558 109.972L37.8883 109.059Z" fill="#231F20"/>
<path d="M41.2263 114.38L39.6074 113.531L38.9378 114.164L38.0664 113.738L41.6528 110.436L42.5976 110.935L41.928 115.76L41.0704 115.301L41.2263 114.38ZM41.3455 113.614L41.6482 111.61L40.1715 112.985L41.3455 113.614Z" fill="#231F20"/>
<path d="M47.1546 113.279C47.4165 113.579 47.584 113.949 47.6361 114.343C47.6844 114.763 47.6211 115.189 47.4527 115.577C47.3046 115.971 47.0507 116.317 46.7189 116.577C46.4066 116.821 46.0279 116.967 45.632 116.994C45.1939 117.026 44.7547 116.95 44.3524 116.774L42.8711 116.168L44.6093 111.903L46.0906 112.509C46.5023 112.676 46.8673 112.94 47.1546 113.279V113.279ZM45.7787 116.1C45.9624 116.014 46.127 115.893 46.2625 115.742C46.3981 115.592 46.5018 115.415 46.5676 115.224C46.7426 114.851 46.764 114.424 46.6272 114.036C46.5429 113.85 46.4212 113.684 46.2697 113.547C46.1182 113.411 45.9401 113.307 45.7466 113.242L45.1458 112.995L43.9993 115.792L44.6001 116.04C44.7855 116.13 44.9874 116.181 45.1933 116.19C45.3993 116.198 45.6047 116.165 45.7971 116.091L45.7787 116.1Z" fill="#231F20"/>
<path d="M49.6183 114.627L49.2697 115.719L50.7419 116.177L50.5218 116.87L49.0496 116.411L48.6827 117.567L50.3429 118.09L50.1136 118.805L47.582 118.002L48.9579 113.632L51.494 114.434L51.2647 115.145L49.6183 114.627Z" fill="#231F20"/>
<path d="M53.5518 119.672L52.9739 117.704L52.552 117.608L52.1438 119.341L51.2266 119.135L52.2814 114.654L53.9553 115.049C54.262 115.111 54.5496 115.244 54.7946 115.439C54.9971 115.597 55.1472 115.813 55.2257 116.058C55.2947 116.262 55.3137 116.48 55.2809 116.693C55.2482 116.907 55.1647 117.109 55.0376 117.283C54.9104 117.458 54.7432 117.599 54.5501 117.695C54.357 117.792 54.1436 117.84 53.9278 117.837L54.5745 119.896L53.5518 119.672ZM52.7079 116.92L53.4554 117.094C53.6495 117.157 53.8606 117.141 54.0425 117.048C54.1202 116.996 54.1864 116.928 54.2369 116.849C54.2874 116.771 54.3211 116.682 54.336 116.59C54.3607 116.503 54.3673 116.413 54.3555 116.323C54.3436 116.234 54.3136 116.148 54.2672 116.071C54.1428 115.913 53.9622 115.808 53.7627 115.778L53.0152 115.604L52.7079 116.92Z" fill="#231F20"/>
<path d="M56.4428 120.108C56.2173 119.976 56.033 119.784 55.9108 119.553C55.7942 119.32 55.7526 119.058 55.7916 118.801L56.7638 118.943C56.7485 119.107 56.796 119.271 56.8968 119.401C57.0143 119.535 57.1783 119.619 57.3555 119.635C57.5334 119.674 57.7195 119.646 57.8783 119.557C57.9438 119.518 57.9994 119.464 58.0408 119.399C58.0821 119.335 58.1081 119.262 58.1168 119.186C58.1284 119.126 58.1279 119.064 58.1153 119.004C58.1027 118.944 58.0782 118.887 58.0434 118.837C57.9713 118.734 57.8773 118.648 57.7682 118.585C57.649 118.521 57.4885 118.438 57.2821 118.346C57.048 118.241 56.8213 118.12 56.6033 117.984C56.4288 117.868 56.2855 117.71 56.186 117.526C56.0761 117.304 56.0422 117.053 56.0897 116.81C56.1212 116.561 56.2285 116.327 56.3969 116.141C56.567 115.957 56.7869 115.826 57.0298 115.764C57.309 115.695 57.5993 115.685 57.8829 115.732C58.2926 115.773 58.6761 115.953 58.9698 116.241C59.0984 116.376 59.1959 116.538 59.2553 116.715C59.3147 116.891 59.3347 117.079 59.3138 117.264L58.314 117.113C58.3217 117.038 58.313 116.962 58.2885 116.891C58.2639 116.819 58.2241 116.754 58.1718 116.7C58.051 116.572 57.8881 116.492 57.7132 116.475C57.5566 116.439 57.3921 116.466 57.2546 116.549C57.1923 116.59 57.1405 116.645 57.1031 116.709C57.0657 116.774 57.0437 116.846 57.039 116.92C57.0287 116.975 57.0298 117.032 57.0425 117.086C57.0551 117.141 57.0789 117.192 57.1124 117.237C57.1869 117.334 57.2786 117.416 57.383 117.48C57.493 117.544 57.6536 117.626 57.8416 117.723C58.0763 117.832 58.3044 117.954 58.5249 118.09C58.6988 118.208 58.8432 118.365 58.9469 118.548C59.0564 118.768 59.0903 119.018 59.0432 119.259C59.0087 119.497 58.9086 119.721 58.7542 119.906C58.5899 120.1 58.3735 120.243 58.1305 120.319C57.8425 120.407 57.538 120.427 57.2408 120.378C56.9599 120.34 56.6889 120.248 56.4428 120.108V120.108Z" fill="#231F20"/>
<path d="M61.0479 119.819L60.1307 121.584L59.5391 121.529L60.1353 119.731L61.0479 119.819Z" fill="#231F20"/>
<path d="M69.7834 116.287L68.6047 120.874L67.5224 120.901L66.6052 117.659L65.7796 120.938L64.7065 120.97L63.3673 116.416H64.3533L65.2385 119.952L66.0915 116.374L67.1142 116.352L68.0727 119.869L68.8065 116.315L69.7834 116.287Z" fill="#231F20"/>
<path d="M71.3279 116.773L71.4701 117.915L73.0019 117.727L73.089 118.447L71.5572 118.635L71.7086 119.841L73.433 119.63L73.5247 120.369L70.8876 120.694L70.3281 116.145L72.9652 115.819L73.0569 116.562L71.3279 116.773Z" fill="#231F20"/>
<path d="M78.2504 115.017C78.6373 115.106 78.9888 115.309 79.2593 115.6C79.5455 115.911 79.7448 116.292 79.8372 116.705C79.9477 117.112 79.9477 117.541 79.8372 117.948C79.7235 118.327 79.502 118.665 79.1997 118.92C78.8638 119.203 78.4639 119.4 78.0348 119.493L76.4755 119.869L75.4023 115.416L76.9571 115.04C77.3802 114.93 77.8236 114.922 78.2504 115.017V115.017ZM78.8007 118.095C78.8986 117.918 78.96 117.723 78.9812 117.522C79.0025 117.321 78.9832 117.118 78.9245 116.925C78.8486 116.521 78.6162 116.163 78.2779 115.93C78.1007 115.829 77.9046 115.766 77.7019 115.743C77.4991 115.721 77.294 115.741 77.0992 115.801L76.4663 115.953L77.1772 118.893L77.8101 118.741C78.0102 118.705 78.201 118.63 78.3712 118.519C78.5414 118.408 78.6875 118.263 78.8007 118.095V118.095Z" fill="#231F20"/>
<path d="M83.6282 117.865L82.0918 116.489L81.6837 116.627L82.2523 118.319L81.381 118.613L79.918 114.274L81.5461 113.724C81.8388 113.615 82.1528 113.576 82.4633 113.609C82.7191 113.639 82.9603 113.744 83.1558 113.912C83.3456 114.075 83.4855 114.288 83.5594 114.526C83.6508 114.805 83.6508 115.106 83.5594 115.384C83.4588 115.687 83.254 115.943 82.9815 116.109L84.6142 117.517L83.6282 117.865ZM81.4727 115.985L82.1973 115.737C82.293 115.712 82.3828 115.669 82.4615 115.609C82.5403 115.549 82.6063 115.474 82.6559 115.389C82.7172 115.223 82.7192 115.041 82.6615 114.874C82.6038 114.706 82.49 114.564 82.3395 114.471C82.1506 114.398 81.9413 114.398 81.7524 114.471L81.0278 114.719L81.4727 115.985Z" fill="#231F20"/>
<path d="M84.7605 112.508L86.4895 116.75L85.641 117.094L83.9258 112.852L84.7605 112.508Z" fill="#231F20"/>
<path d="M89.3222 110.376L89.8129 115.233L88.8085 115.719L85.3047 112.334L86.1898 111.903L88.914 114.627L88.4554 110.807L89.3222 110.376Z" fill="#231F20"/>
<path d="M90.9468 110.261L91.5293 111.247L92.8593 110.463L93.2307 111.091L91.9007 111.876L92.5199 112.921L94.015 112.036L94.3956 112.683L92.1025 114.031L89.7773 110.069L92.0704 108.716L92.4465 109.362L90.9468 110.261Z" fill="#231F20"/>
<path d="M95.3101 107.417L95.9934 108.334L97.2363 107.417L97.6674 108.004L96.4245 108.922L97.1446 109.898L98.5434 108.866L99.002 109.467L96.8648 111.045L94.1406 107.353L96.2824 105.775L96.741 106.376L95.3101 107.417Z" fill="#231F20"/>
<path d="M102.002 106.95L100.241 106.437L100.571 108.188L99.7918 108.867L99.3653 106.175L96.7695 105.418L97.5675 104.731L99.324 105.24L98.9892 103.497L99.7735 102.813L100.195 105.496L102.796 106.258L102.002 106.95Z" fill="#231F20"/>
<path d="M101.116 103.019C100.997 102.637 100.988 102.229 101.089 101.841C101.193 101.441 101.4 101.076 101.689 100.781C102.013 100.428 102.437 100.183 102.905 100.08C103.359 99.9824 103.833 100.042 104.249 100.249L103.519 101.015C103.304 100.947 103.074 100.947 102.859 101.015C102.637 101.075 102.434 101.192 102.272 101.355C102.096 101.534 101.972 101.757 101.914 102.001C101.861 102.239 101.877 102.488 101.96 102.717C102.057 102.976 102.214 103.209 102.419 103.396C102.616 103.588 102.854 103.734 103.116 103.822C103.351 103.891 103.601 103.891 103.836 103.822C104.076 103.753 104.294 103.62 104.464 103.437C104.625 103.273 104.74 103.069 104.794 102.845C104.848 102.624 104.831 102.391 104.744 102.18L105.473 101.419C105.702 101.824 105.784 102.295 105.707 102.753C105.622 103.191 105.421 103.598 105.125 103.931C104.829 104.264 104.448 104.512 104.024 104.648C103.643 104.766 103.237 104.777 102.85 104.68C102.443 104.567 102.07 104.355 101.765 104.063C101.46 103.771 101.233 103.407 101.102 103.006L101.116 103.019Z" fill="#231F20"/>
<path d="M104.852 98.4146L105.769 99.1346L106.737 97.933L107.306 98.3916L106.334 99.5932L107.278 100.355L108.374 99.0016L108.952 99.4602L107.287 101.529L103.715 98.6485L105.384 96.5801L105.967 97.0387L104.852 98.4146Z" fill="#231F20"/>
<path d="M109.554 97.374L110.42 96.1403L111.017 96.5577L109.641 98.5435L105.898 95.9064L106.426 95.1543L109.554 97.374Z" fill="#231F20"/>
<path d="M111.362 94.6495L112.156 93.3699L112.775 93.7506L111.495 95.8144L107.602 93.4066L108.06 92.627L111.362 94.6495Z" fill="#231F20"/>
<path d="M110.262 90.3475L111.276 90.8841L111.996 89.5082L112.642 89.8522L111.904 91.2648L112.977 91.8334L113.789 90.2971L114.449 90.6502L113.207 92.9937L109.152 90.8061L110.395 88.458L111.056 88.8111L110.262 90.3475Z" fill="#231F20"/>
<path d="M116.553 85.9543L116.191 86.7981L112.481 87.4677L115.37 88.706L115.008 89.5498L110.793 87.7429L111.155 86.899L114.87 86.2294L111.976 84.9866L112.339 84.1427L116.553 85.9543Z" fill="#231F20"/>
<path d="M113.694 83.5837C113.421 83.2919 113.234 82.9299 113.153 82.5381C113.07 82.1009 113.106 81.6494 113.257 81.2307C113.407 80.812 113.668 80.4415 114.011 80.1578C114.372 79.8632 114.824 79.7014 115.29 79.6992L114.974 80.7082C114.749 80.7328 114.537 80.8275 114.369 80.9788C114.202 81.1377 114.079 81.3366 114.011 81.5566C113.933 81.795 113.92 82.05 113.974 82.295C114.033 82.531 114.157 82.7456 114.332 82.9141C114.536 83.0989 114.778 83.2379 115.041 83.3217C115.303 83.4056 115.581 83.4323 115.854 83.4003C116.097 83.3637 116.325 83.2587 116.51 83.0976C116.696 82.93 116.831 82.714 116.9 82.4739C116.977 82.2559 116.992 82.0208 116.941 81.7951C116.891 81.5744 116.773 81.3753 116.602 81.2264L116.923 80.2175C117.305 80.482 117.587 80.8684 117.721 81.3136C117.834 81.7446 117.831 82.1979 117.711 82.6273C117.592 83.0567 117.361 83.4468 117.042 83.758C116.752 84.0306 116.391 84.2178 116.001 84.2992C115.588 84.376 115.162 84.3492 114.762 84.2211C114.362 84.0931 114 83.8678 113.708 83.5654L113.694 83.5837Z" fill="#231F20"/>
<path d="M115.025 77.8005L116.144 78.0527L116.488 76.5484L117.194 76.709L116.855 78.2132L118.038 78.4792L118.423 76.7823L119.152 76.9474L118.565 79.5432L114.094 78.5297L114.681 75.9385L115.41 76.1036L115.025 77.8005Z" fill="#231F20"/>
<path d="M12.1397 41.161L14.4328 41.9774L14.3548 42.2021C13.9215 42.1404 13.4808 42.1544 13.0523 42.2434C12.7529 42.3255 12.4796 42.4835 12.2589 42.702C12.0716 42.9368 11.9329 43.2065 11.8508 43.4954L11.626 44.1283L18.1797 46.4581C18.448 46.5745 18.7326 46.6487 19.0235 46.6782C19.1678 46.6582 19.3024 46.5941 19.4088 46.4947C19.5608 46.3498 19.6729 46.1682 19.7344 45.9673L19.8353 45.683L20.0646 45.7655L18.4824 50.2187L18.2531 50.1362L18.354 49.8518C18.4349 49.6481 18.4618 49.4269 18.4319 49.2098C18.4055 49.0683 18.331 48.9403 18.221 48.8475C17.9861 48.6898 17.7275 48.5706 17.4551 48.4943L10.9014 46.1645L10.6859 46.7791C10.488 47.2116 10.4602 47.7028 10.6079 48.1549C10.8581 48.683 11.2824 49.1089 11.8095 49.3611L11.7269 49.5996L9.43384 48.7787L12.1397 41.161Z" fill="#231F20"/>
<path d="M22.1819 35.0342L24.7639 36.9099L20.7648 43.8534L20.5538 43.7296L20.7006 43.4682C20.8199 43.2845 20.8879 43.0724 20.8978 42.8536C20.8953 42.7106 20.8435 42.5729 20.751 42.4638C20.5461 42.2772 20.3142 42.1225 20.0631 42.0052L14.9174 39.0242C14.6757 38.8635 14.4113 38.7399 14.1331 38.6573C13.9876 38.6444 13.8419 38.6816 13.7204 38.7627C13.5459 38.8779 13.4038 39.0358 13.3076 39.2214L13.1609 39.4828L12.9453 39.359L15.3439 35.1901L15.5549 35.3139L15.3622 35.6533C15.2414 35.8376 15.1747 36.0521 15.1696 36.2724C15.1699 36.4156 15.2183 36.5546 15.3072 36.6669C15.513 36.8546 15.7466 37.0093 15.9997 37.1255L20.9803 39.9918C21.2269 40.1556 21.4977 40.2794 21.7829 40.3587C21.8554 40.3667 21.9288 40.3593 21.9983 40.3372C22.0678 40.3151 22.1319 40.2787 22.1865 40.2303C22.3653 40.0261 22.5193 39.8013 22.6451 39.5607L23.0166 38.9095C23.2301 38.5624 23.3574 38.1693 23.3881 37.763C23.3925 37.3736 23.2962 36.9896 23.1083 36.6485C22.8158 36.1451 22.458 35.6824 22.0443 35.2727L22.1819 35.0342Z" fill="#231F20"/>
<path d="M25.5542 22.2021L27.3428 23.8486L27.1823 24.0229C26.8089 23.7949 26.3995 23.6321 25.9715 23.5413C25.6602 23.5016 25.344 23.5443 25.0543 23.6651C24.7895 23.8051 24.5555 23.997 24.3664 24.2292L23.9078 24.7246L29.0076 29.4758C29.2078 29.686 29.4381 29.8653 29.6909 30.0078C29.8295 30.0533 29.9789 30.0533 30.1175 30.0078C30.3154 29.935 30.4909 29.8117 30.6265 29.6501L30.8329 29.43L31.0118 29.5997L27.8014 33.0576L27.6226 32.8925L27.8244 32.6724C27.9816 32.5153 28.0941 32.3189 28.15 32.1037C28.1798 31.9629 28.162 31.8161 28.0995 31.6864C27.9369 31.4498 27.7407 31.2382 27.5171 31.0581L22.4356 26.3251L21.977 26.7837C21.6205 27.1008 21.399 27.5422 21.3578 28.0174C21.3837 28.611 21.6156 29.177 22.0137 29.618L21.8394 29.8015L20.0508 28.1413L25.5542 22.2021Z" fill="#231F20"/>
<path d="M30.0843 19.207L32.2902 22.1421L32.4324 22.0321C32.6335 21.9082 32.8003 21.7358 32.9173 21.5306C33.0343 21.3255 33.0978 21.0942 33.102 20.858C33.0601 20.2972 32.8736 19.7569 32.5608 19.2895L32.7626 19.1382L35.5785 22.931L35.3767 23.0823C35.0887 22.7493 34.7401 22.4738 34.3494 22.2705C34.0844 22.1227 33.7792 22.0633 33.4781 22.1009C33.1513 22.1863 32.8475 22.343 32.5883 22.5595L34.1155 24.5912C34.2846 24.8459 34.4849 25.0786 34.7118 25.2837C34.8173 25.3485 34.9422 25.3745 35.0649 25.3571C35.2539 25.3222 35.4299 25.2366 35.574 25.1094L36.0051 24.7838C36.6045 24.3802 37.0516 23.7877 37.2754 23.1006C37.4394 22.4037 37.3701 21.6723 37.0782 21.0185L37.2754 20.8718L38.6513 23.4079L32.437 28.0675L32.2902 27.8703L32.5287 27.6914C32.7102 27.568 32.8558 27.3987 32.9507 27.2007C33.005 27.0697 33.0131 26.9241 32.9736 26.7879C32.8572 26.528 32.7026 26.2868 32.515 26.0725L28.9653 21.3258C28.8271 21.1205 28.6738 20.9258 28.5066 20.7433C28.3893 20.6508 28.2433 20.6022 28.0939 20.6058C27.8494 20.6205 27.6161 20.7138 27.4289 20.8718L27.1904 21.0506L27.0391 20.8534L33.0791 16.3223L34.6796 18.4548L34.4779 18.6062C34.1213 18.2439 33.6846 17.9706 33.2029 17.8082C32.8137 17.7233 32.408 17.7568 32.038 17.9045C31.6099 18.0965 31.2102 18.3465 30.8502 18.6475L30.0843 19.207Z" fill="#231F20"/>
<path d="M43.2248 10.6629L44.6006 13.4696L44.3713 13.5843C43.9193 12.994 43.2835 12.5712 42.5643 12.3827C41.9214 12.2269 41.2441 12.3033 40.6519 12.5983C40.1523 12.8397 39.7403 13.2308 39.4733 13.7173C39.1977 14.2019 39.0716 14.7572 39.1109 15.3133C39.1671 16.0772 39.3744 16.8224 39.7209 17.5055C40.0414 18.1767 40.462 18.7952 40.9684 19.34C41.3687 19.796 41.9007 20.1165 42.491 20.2572C43.0864 20.3586 43.6986 20.2568 44.2291 19.9683C44.7188 19.7329 45.1437 19.3819 45.4674 18.9456C45.8361 18.3868 46.0988 17.7649 46.2425 17.1111L46.5818 17.8082C46.3945 18.4399 46.0826 19.0278 45.6646 19.5372C45.2275 20.0292 44.6935 20.4258 44.0961 20.7021C43.307 21.1105 42.4301 21.3199 41.5416 21.312C40.721 21.3069 39.9214 21.0526 39.2485 20.5828C38.5869 20.1335 38.0528 19.5204 37.6984 18.8034C37.3251 18.0278 37.1667 17.1662 37.2398 16.3085C37.2921 15.4474 37.5775 14.6168 38.0653 13.9053C38.5479 13.2005 39.2053 12.6332 39.9732 12.2589C40.5953 11.9637 41.2674 11.7879 41.9544 11.7407C42.228 11.7345 42.4995 11.6913 42.7615 11.6122C42.8239 11.583 42.8795 11.5409 42.9245 11.4887C42.9695 11.4366 43.0031 11.3755 43.023 11.3096C43.0686 11.1329 43.0557 10.9463 42.9863 10.7776L43.2248 10.6629Z" fill="#231F20"/>
<path d="M50.3408 13.5113L51.0287 16.2217C51.0805 16.5084 51.1764 16.7853 51.313 17.0426C51.4107 17.1508 51.5385 17.2275 51.6799 17.2628C51.8815 17.3144 52.0929 17.3144 52.2945 17.2628L52.5834 17.1894L52.643 17.4279L48.0568 18.5836L47.9972 18.3451L48.2907 18.2717C48.5051 18.227 48.7042 18.1275 48.8686 17.9828C48.9708 17.8825 49.0342 17.7493 49.0475 17.6067C49.0444 17.3246 48.998 17.0447 48.9099 16.7766L47.4698 11.0072C47.4144 10.7215 47.3186 10.4451 47.1855 10.1863C47.0922 10.0751 46.9648 9.99773 46.8232 9.96616C46.6201 9.91722 46.4075 9.92516 46.2086 9.98909L45.9197 10.0625L45.8555 9.82399L50.4417 8.66368L50.5059 8.90216L50.2123 8.97554C49.9969 9.01992 49.7974 9.12128 49.6345 9.26906C49.5319 9.36955 49.4671 9.50239 49.451 9.64513C49.4516 9.92708 49.4965 10.2072 49.584 10.4752L50.2123 12.9518L53.2988 12.1675L52.6751 9.69099C52.6188 9.40551 52.5231 9.12924 52.3908 8.87006C52.2963 8.758 52.1672 8.68055 52.0239 8.64992C51.8207 8.59829 51.6079 8.59829 51.4048 8.64992L51.125 8.7233L51.0608 8.48482L55.647 7.3291L55.7066 7.56758L55.4223 7.63638C55.2074 7.68241 55.0083 7.78356 54.8444 7.92989C54.7418 8.03039 54.677 8.16322 54.6609 8.30596C54.6615 8.58792 54.7064 8.86803 54.7939 9.13606L56.2524 14.8871C56.3048 15.173 56.3991 15.4496 56.5321 15.7081C56.6266 15.8201 56.7557 15.8976 56.899 15.9282C57.1038 15.9748 57.3173 15.9669 57.5181 15.9053L57.8025 15.8319L57.8621 16.0704L53.2759 17.2307L53.2163 16.9922L53.5006 16.9188C53.7161 16.8747 53.9157 16.7733 54.0785 16.6253C54.1825 16.5253 54.2489 16.3925 54.2665 16.2492C54.2635 15.9671 54.2171 15.6871 54.1289 15.4191L53.4456 12.7133L50.3408 13.5113Z" fill="#231F20"/>
<path d="M61.862 6.87939L66.4482 12.3828L66.3473 8.50748C66.3799 8.1256 66.2899 7.74325 66.0905 7.41597C65.9483 7.27978 65.7768 7.17796 65.5892 7.11834C65.4016 7.05871 65.2028 7.04286 65.0081 7.07201V6.82436L67.9891 6.75098V6.99404C67.7235 7.01927 67.4643 7.09066 67.2232 7.20501C67.0858 7.2978 66.9827 7.43315 66.9297 7.59025C66.8444 7.88801 66.8149 8.19898 66.8426 8.50748L67.0306 16.0151H66.8013L60.5182 8.67717L60.6604 14.4099C60.6407 14.6009 60.6648 14.794 60.7307 14.9743C60.7967 15.1547 60.9028 15.3177 61.0411 15.451C61.2796 15.6229 61.5681 15.7115 61.862 15.7032H62.0775V15.9463L58.8672 16.0288V15.7812C59.2405 15.8054 59.6092 15.6874 59.8991 15.451C60.1153 15.1549 60.2104 14.7875 60.1651 14.4237L60.0046 8.06263L59.8074 7.82414C59.6668 7.63833 59.4907 7.48242 59.2891 7.36552C59.0878 7.28644 58.8725 7.249 58.6562 7.25546V7.0078L61.862 6.87939Z" fill="#231F20"/>
<path d="M73.9788 7.42979C74.6084 7.47785 75.2208 7.65846 75.7757 7.95977C76.3307 8.26109 76.8157 8.67631 77.1989 9.1782C77.5822 9.68009 77.855 10.2573 77.9995 10.872C78.144 11.4868 78.157 12.1251 78.0375 12.7452C77.8857 13.8217 77.3751 14.8154 76.5883 15.5657C76.0634 16.0595 75.4266 16.4187 74.7326 16.6128C74.0385 16.8069 73.3078 16.83 72.6029 16.6801C71.8929 16.605 71.2106 16.3641 70.6107 15.977C70.0109 15.5898 69.5104 15.0672 69.1495 14.4512C68.5954 13.4787 68.4006 12.3424 68.5992 11.2409C68.6816 10.6236 68.8912 10.0301 69.2149 9.49802C69.5386 8.96593 69.9692 8.50685 70.4795 8.14982C70.9783 7.78853 71.5484 7.53748 72.1517 7.41334C72.755 7.2892 73.3778 7.29481 73.9788 7.42979V7.42979ZM73.9788 7.86089C73.5802 7.7984 73.172 7.85518 72.8056 8.0241C72.4392 8.19303 72.1309 8.46654 71.9196 8.81023C71.3786 9.67765 71.04 10.6558 70.9289 11.672C70.6843 13.2007 70.7715 14.3672 71.1904 15.1713C71.3267 15.4466 71.53 15.6832 71.7816 15.8595C72.0332 16.0358 72.3251 16.1461 72.6304 16.1802C73.0356 16.2725 73.4599 16.2274 73.8366 16.0518C74.3234 15.7783 74.7129 15.3599 74.951 14.8548C75.3187 14.1074 75.5619 13.305 75.6711 12.4792C75.8524 11.5918 75.885 10.6805 75.7674 9.7825C75.6934 9.2707 75.47 8.7921 75.1253 8.40664C74.8144 8.10758 74.4157 7.91627 73.9879 7.86089H73.9788Z" fill="#231F20"/>
<path d="M86.5465 17.2941L85.1294 20.1421L77.6172 17.3583L77.7043 17.129L77.9841 17.2345C78.1866 17.32 78.4082 17.3501 78.6261 17.3216C78.7673 17.2971 78.8954 17.2241 78.9885 17.1152C79.1468 16.8817 79.2675 16.6248 79.3462 16.3539L81.41 10.7909C81.5294 10.5263 81.6067 10.2447 81.6393 9.95619C81.6283 9.81084 81.5685 9.67347 81.4696 9.56636C81.3272 9.4124 81.1469 9.29853 80.9468 9.23616L80.667 9.13068L80.7541 8.90137L85.2624 10.5753L85.1798 10.8046L84.8083 10.667C84.6075 10.5815 84.3873 10.5514 84.1708 10.5799C84.0294 10.6043 83.9003 10.6753 83.8039 10.7817C83.6455 11.0157 83.5233 11.2724 83.4416 11.543L81.4466 16.9318C81.3268 17.2046 81.248 17.4936 81.2128 17.7894C81.2178 17.8617 81.238 17.9321 81.272 17.996C81.3059 18.06 81.3529 18.1162 81.41 18.1609C81.6383 18.3051 81.8851 18.4178 82.1438 18.4957L82.8454 18.7571C83.2276 18.9174 83.644 18.979 84.0562 18.9359C84.4422 18.879 84.8061 18.7208 85.111 18.4773C85.5594 18.1054 85.9558 17.6751 86.2897 17.1978L86.5465 17.2941Z" fill="#231F20"/>
<path d="M94.5708 14.983C95.1366 15.2634 95.6367 15.6604 96.038 16.1479C96.4394 16.6355 96.7329 17.2025 96.8992 17.8117C97.0656 18.4208 97.1011 19.0583 97.0033 19.6822C96.9055 20.3061 96.6767 20.9021 96.3319 21.4312C95.7821 22.3756 94.9261 23.1037 93.9058 23.495C93.232 23.7581 92.5045 23.8538 91.7855 23.7739C91.0666 23.694 90.3778 23.4409 89.7782 23.0364C89.1488 22.6983 88.6071 22.218 88.1963 21.6335C87.7854 21.0491 87.5168 20.3767 87.4118 19.6701C87.2657 18.5577 87.5157 17.4293 88.118 16.4827C88.4264 15.9411 88.8442 15.4697 89.3448 15.0986C89.8454 14.7275 90.4179 14.4648 91.0257 14.3272C91.629 14.1754 92.258 14.1553 92.8697 14.2685C93.4815 14.3817 94.0617 14.6254 94.5708 14.983V14.983ZM94.4195 15.3866C94.0737 15.1781 93.6739 15.0769 93.2707 15.0956C92.8674 15.1144 92.4787 15.2524 92.1539 15.4921C91.3222 16.0938 90.6397 16.8783 90.1589 17.7852C89.367 19.0754 89.0093 20.1792 89.0857 21.0964C89.1076 21.4035 89.2065 21.7002 89.3732 21.9591C89.5399 22.218 89.7691 22.4307 90.0396 22.5777C90.3804 22.8014 90.7837 22.9107 91.1908 22.8896C91.7433 22.8142 92.2599 22.5727 92.6721 22.1971C93.2873 21.6456 93.8092 20.9982 94.2177 20.2801C94.7221 19.5278 95.0944 18.6949 95.3183 17.8173C95.4437 17.3181 95.4182 16.793 95.245 16.3084C95.0729 15.9224 94.7842 15.6001 94.4195 15.3866V15.3866Z" fill="#231F20"/>
<path d="M107.002 24.7651L104.842 27.0949L104.659 26.9252C105.013 26.1985 105.141 25.3819 105.025 24.5816C104.918 23.8787 104.578 23.2324 104.058 22.7472C103.626 22.3152 103.053 22.0545 102.443 22.0134C101.812 21.9978 101.19 22.1771 100.664 22.527C100.071 22.9067 99.533 23.3649 99.0634 23.8891C98.5278 24.4425 98.0807 25.0752 97.738 25.7649C97.457 26.2932 97.3679 26.9026 97.4858 27.4893C97.7059 28.2583 98.2111 28.9144 98.8983 29.3237C99.1057 29.452 99.3236 29.5624 99.5496 29.654L100.825 28.2781C100.995 28.1193 101.137 27.9314 101.242 27.7232C101.275 27.5857 101.264 27.4411 101.21 27.3104C101.144 27.1327 101.033 26.9749 100.889 26.8518L100.719 26.6913L100.889 26.5124L104.099 29.4934L103.934 29.6723C103.756 29.5137 103.551 29.3879 103.329 29.3008C103.175 29.2633 103.013 29.2795 102.87 29.3467C102.694 29.4567 102.539 29.5964 102.411 29.7594L101.136 31.1353C100.538 30.9296 99.9636 30.6621 99.4212 30.3373C98.8646 29.9995 98.3437 29.6061 97.8664 29.1632C97.3175 28.6847 96.8673 28.1036 96.541 27.4526C96.2955 26.9194 96.1405 26.349 96.0824 25.7649C96.0198 25.219 96.0634 24.6661 96.2108 24.1368C96.4111 23.4499 96.7728 22.8209 97.2656 22.3023C97.6927 21.8239 98.2144 21.4395 98.7979 21.1734C99.3813 20.9074 100.014 20.7655 100.655 20.7568C101.318 20.7384 101.978 20.8546 102.595 21.0981C103.212 21.3417 103.774 21.7076 104.246 22.1739C104.548 22.451 104.822 22.7584 105.062 23.0911C105.249 23.3664 105.413 23.6563 105.553 23.9579C105.66 24.2059 105.793 24.4425 105.947 24.6642C106.042 24.7527 106.166 24.8019 106.296 24.8018C106.495 24.7881 106.689 24.7267 106.86 24.6229L107.002 24.7651Z" fill="#231F20"/>
<path d="M104.5 36.0198L104.307 36.1711L101.391 32.4655L101.583 32.3141L101.771 32.548C101.898 32.7277 102.071 32.8702 102.271 32.9608C102.404 33.0095 102.551 33.0095 102.684 32.9608C102.941 32.8451 103.18 32.6904 103.39 32.5022L108.054 28.8332C108.295 28.672 108.51 28.4757 108.692 28.2508C108.754 28.1195 108.774 27.9718 108.747 27.8288C108.706 27.6236 108.613 27.4324 108.476 27.2739L108.293 27.04L108.485 26.8887L111.402 30.5943L111.21 30.7502L111.022 30.5118C110.895 30.3331 110.722 30.1921 110.522 30.1036C110.387 30.0545 110.239 30.0545 110.104 30.1036C109.847 30.2199 109.609 30.3746 109.398 30.5622L104.734 34.2312C104.498 34.3927 104.286 34.5873 104.106 34.809C104.045 34.9408 104.027 35.0885 104.055 35.2309C104.096 35.4362 104.189 35.6274 104.326 35.7859L104.5 36.0198Z" fill="#231F20"/>
<path d="M113.968 35.57L110.757 37.3769L110.844 37.5328C110.943 37.7478 111.094 37.9349 111.283 38.0773C111.472 38.2198 111.693 38.3132 111.927 38.3492C112.491 38.3718 113.051 38.2502 113.555 37.9961L113.679 38.2162L109.551 40.5368L109.427 40.3167C109.788 40.071 110.099 39.7599 110.344 39.3994C110.524 39.1544 110.624 38.8595 110.629 38.5556C110.583 38.229 110.467 37.9161 110.289 37.6383L108.079 38.8858C107.804 39.0225 107.547 39.1919 107.313 39.3903C107.236 39.4868 107.194 39.6063 107.194 39.7296C107.207 39.9229 107.27 40.1094 107.377 40.2708L107.639 40.7294C107.937 41.3893 108.471 41.9142 109.136 42.2017C109.801 42.4891 110.549 42.5185 111.234 42.2841L111.358 42.4951L108.693 43.5408L104.859 36.7532L105.075 36.634L105.222 36.8908C105.324 37.0779 105.472 37.2357 105.653 37.3494C105.777 37.4234 105.923 37.4511 106.066 37.4274C106.345 37.3598 106.613 37.25 106.859 37.1018L112.028 34.1849C112.249 34.067 112.462 33.9337 112.665 33.7859C112.771 33.681 112.839 33.5439 112.858 33.3961C112.872 33.1523 112.809 32.9101 112.679 32.7036L112.532 32.4422L112.743 32.3184L116.453 38.8949L114.133 40.2066L114.009 39.9865C114.413 39.6793 114.74 39.282 114.963 38.8262C115.099 38.4511 115.12 38.0437 115.022 37.6567C114.885 37.2078 114.69 36.7791 114.44 36.3817L113.968 35.57Z" fill="#231F20"/>
<path d="M119.86 46.9992L117.058 48.0953L116.966 47.8385C117.582 47.5027 118.066 46.9696 118.342 46.325C118.597 45.7681 118.629 45.1341 118.429 44.5548C118.316 44.1801 118.063 43.8633 117.723 43.6696C117.585 43.5903 117.432 43.5414 117.274 43.5264C117.115 43.5114 116.956 43.5305 116.806 43.5825C116.627 43.6433 116.469 43.751 116.347 43.8944C116.174 44.1329 116.048 44.4021 115.975 44.6878C115.865 45.2239 115.785 45.766 115.737 46.3113C115.692 47.1829 115.47 48.0364 115.086 48.8199C114.785 49.3104 114.326 49.6829 113.783 49.8747C113.437 50.0021 113.067 50.0533 112.699 50.0248C112.331 49.9963 111.973 49.8888 111.651 49.7096C110.922 49.3209 110.374 48.6626 110.124 47.8752C110.031 47.62 109.966 47.3555 109.931 47.0863C109.902 46.7522 109.902 46.4161 109.931 46.082C109.946 45.8997 109.927 45.7163 109.876 45.5408C109.823 45.419 109.735 45.3154 109.624 45.2427C109.48 45.1458 109.311 45.0917 109.137 45.0868L109.055 44.8575L112.265 43.6926L112.348 43.9265C111.609 44.3312 111.021 44.9655 110.674 45.7334C110.393 46.3468 110.359 47.0445 110.578 47.6825C110.704 48.0969 110.984 48.4468 111.362 48.6594C111.518 48.7495 111.692 48.8048 111.872 48.8214C112.051 48.838 112.233 48.8156 112.403 48.7557C112.606 48.6783 112.786 48.5504 112.926 48.3842C113.088 48.1804 113.208 47.9466 113.279 47.6963C113.4 47.2458 113.482 46.7854 113.522 46.3204C113.578 45.6375 113.701 44.9617 113.889 44.3025C114.014 43.8976 114.222 43.5229 114.499 43.2018C114.766 42.8969 115.107 42.6662 115.489 42.5323C115.812 42.4108 116.156 42.3586 116.5 42.3791C116.843 42.3997 117.179 42.4925 117.484 42.6515C117.809 42.8177 118.097 43.0463 118.333 43.3241C118.569 43.6018 118.748 43.9234 118.86 44.2704C118.959 44.5394 119.022 44.82 119.048 45.1051C119.077 45.3765 119.077 45.6501 119.048 45.9214C119.007 46.1412 119.007 46.3667 119.048 46.5864C119.062 46.6353 119.086 46.6805 119.119 46.7187C119.153 46.7568 119.194 46.7869 119.241 46.8066C119.421 46.8458 119.607 46.8458 119.787 46.8066L119.86 46.9992Z" fill="#231F20"/>
<path d="M23.8399 69.8931H0.785156L0.831018 59.1201H23.8812L23.8399 69.8931Z" fill="#F20000"/>
<path d="M7.48952 62.6838V64.5503H7.58125C7.70126 64.5603 7.82187 64.5404 7.93231 64.4924C8.04275 64.4443 8.13957 64.3697 8.21414 64.2752C8.36445 64.0315 8.45118 63.7539 8.46638 63.468H8.59479V65.8712H8.46638C8.44906 65.6481 8.38994 65.4303 8.29211 65.2291C8.22916 65.0871 8.12331 64.9684 7.98942 64.8897C7.83109 64.8247 7.66051 64.795 7.48952 64.8026V66.0959C7.48035 66.2495 7.49114 66.4037 7.52163 66.5545C7.54551 66.612 7.58733 66.6603 7.64087 66.6921C7.72924 66.7349 7.82726 66.7538 7.92521 66.7471H8.20038C8.56804 66.7662 8.93146 66.6613 9.23227 66.449C9.51306 66.2126 9.7081 65.8902 9.7872 65.5318H9.91103L9.70465 66.9856H5.74219V66.8618H5.89353C6.00464 66.8664 6.11512 66.8428 6.21456 66.793C6.27854 66.756 6.3273 66.6975 6.35215 66.6279C6.38563 66.4883 6.398 66.3446 6.38884 66.2014V63.1837C6.39819 63.0569 6.39819 62.9297 6.38884 62.803C6.36859 62.73 6.32512 62.6656 6.26501 62.6195C6.15919 62.5542 6.03613 62.5222 5.91188 62.5278H5.76053V62.3994H9.59917V63.7753H9.47076C9.43626 63.5185 9.34201 63.2735 9.19558 63.0598C9.06182 62.9075 8.88649 62.7975 8.6911 62.7434C8.45785 62.6921 8.21879 62.672 7.98025 62.6838H7.48952Z" fill="white"/>
<path d="M13.478 62.3125L13.5146 63.8443H13.3771C13.3228 63.4926 13.1515 63.1695 12.8909 62.9271C12.6699 62.7077 12.3722 62.5828 12.0608 62.5785C11.862 62.5669 11.6664 62.6326 11.5151 62.762C11.4529 62.8145 11.4027 62.8798 11.3678 62.9533C11.333 63.0269 11.3144 63.1071 11.3133 63.1885C11.3114 63.2839 11.3369 63.3777 11.3867 63.4591C11.4688 63.5828 11.5748 63.6888 11.6985 63.771C11.936 63.9152 12.181 64.0468 12.4323 64.1654C12.8409 64.3395 13.2105 64.5936 13.5192 64.9129C13.7035 65.1412 13.8025 65.4267 13.799 65.7201C13.7988 65.9086 13.7576 66.0947 13.6785 66.2658C13.5993 66.4368 13.4839 66.5886 13.3404 66.7107C13.0291 66.9905 12.6213 67.1385 12.203 67.1235C12.0656 67.1251 11.9285 67.1097 11.7948 67.0776C11.6278 67.0385 11.465 66.9832 11.3087 66.9125C11.2243 66.8762 11.1344 66.8545 11.0427 66.8483C10.9752 66.8515 10.91 66.8738 10.8547 66.9125C10.784 66.9649 10.7298 67.0365 10.6987 67.1189H10.5703V65.3899H10.6987C10.7667 65.8134 10.9712 66.2032 11.2812 66.4997C11.526 66.7407 11.8549 66.8772 12.1984 66.8804C12.4191 66.8913 12.6357 66.8175 12.8038 66.674C12.8708 66.6172 12.9254 66.5471 12.9641 66.4682C13.0028 66.3893 13.0247 66.3032 13.0285 66.2154C13.0289 66.1039 12.9988 65.9945 12.9414 65.8989C12.8724 65.7876 12.7839 65.6897 12.68 65.61C12.4831 65.4725 12.2744 65.3527 12.0562 65.2523C11.7339 65.1089 11.4266 64.9337 11.139 64.7295C10.968 64.5855 10.829 64.4074 10.7308 64.2066C10.6324 64.0268 10.5819 63.8246 10.5841 63.6196C10.5831 63.4469 10.6186 63.276 10.6881 63.118C10.7577 62.9599 10.8597 62.8183 10.9877 62.7024C11.1213 62.572 11.2801 62.4702 11.4543 62.4032C11.6286 62.3362 11.8147 62.3054 12.0012 62.3125C12.1467 62.3119 12.2916 62.3304 12.4323 62.3676C12.567 62.4048 12.6976 62.4555 12.8221 62.5189C12.9211 62.5759 13.0301 62.6132 13.1432 62.629C13.1687 62.6302 13.1942 62.6259 13.2179 62.6164C13.2417 62.6069 13.2631 62.5924 13.2807 62.574C13.33 62.4941 13.3627 62.4052 13.3771 62.3125H13.478Z" fill="white"/>
<path d="M18.4465 62.418V63.6608H18.3456C18.2985 63.4427 18.2164 63.2336 18.1026 63.0417C18.0097 62.9126 17.8848 62.8099 17.7402 62.7436C17.5931 62.6924 17.437 62.6721 17.2816 62.684H16.9422V66.2199C16.932 66.3738 16.9444 66.5283 16.9789 66.6785C17.0129 66.7443 17.0656 66.7985 17.1303 66.8345C17.2274 66.881 17.3345 66.903 17.4421 66.8987H17.5935V67.0225H15.1812V66.8987H15.3371C15.4482 66.9033 15.5587 66.8797 15.6581 66.8299C15.7196 66.79 15.7676 66.7325 15.7957 66.6648C15.8292 66.5252 15.8416 66.3815 15.8324 66.2383V62.7023H15.5022C15.2605 62.6794 15.0193 62.75 14.828 62.8995C14.6166 63.1078 14.4851 63.3838 14.4565 63.6792H14.3281V62.418H18.4465Z" fill="white"/>
<path d="M20.0882 65.6374C20.4023 65.6374 20.6569 65.3828 20.6569 65.0687C20.6569 64.7546 20.4023 64.5 20.0882 64.5C19.7741 64.5 19.5195 64.7546 19.5195 65.0687C19.5195 65.3828 19.7741 65.6374 20.0882 65.6374Z" fill="white"/>
<path d="M129.175 69.8931H106.125L106.171 59.1201H129.221L129.175 69.8931Z" fill="#F20000"/>
<path d="M113.915 67.0043H111.219V66.9309C111.775 66.3121 112.278 65.6478 112.723 64.9451C112.892 64.6384 112.983 64.2952 112.989 63.9453C112.996 63.7268 112.917 63.5142 112.769 63.3537C112.701 63.2788 112.618 63.2192 112.526 63.1789C112.433 63.1386 112.333 63.1184 112.232 63.1198C112.062 63.1193 111.894 63.1684 111.751 63.2613C111.608 63.3541 111.494 63.4866 111.425 63.6426L111.297 63.5967C111.382 63.229 111.575 62.8951 111.852 62.6382C112.091 62.4321 112.398 62.3211 112.714 62.3264C112.935 62.3227 113.154 62.3781 113.347 62.4869C113.54 62.5932 113.699 62.7523 113.805 62.9455C113.907 63.105 113.964 63.2886 113.97 63.4775C113.966 63.7997 113.879 64.1154 113.718 64.3947C113.3 65.0384 112.799 65.6243 112.228 66.1375H113.218C113.372 66.1422 113.525 66.133 113.677 66.11C113.745 66.0916 113.807 66.0552 113.856 66.0045C113.932 65.9107 113.995 65.8074 114.044 65.6972H114.195L113.915 67.0043Z" fill="white"/>
<path d="M117.725 64.7107C117.728 65.1462 117.663 65.5795 117.532 65.9948C117.469 66.2137 117.363 66.4179 117.22 66.5956C117.091 66.7453 116.936 66.8697 116.762 66.9625C116.586 67.058 116.388 67.1053 116.189 67.0996C115.989 67.094 115.794 67.0356 115.624 66.9304C115.438 66.8054 115.281 66.641 115.166 66.4489C115.049 66.2579 114.961 66.0508 114.904 65.8343C114.808 65.4863 114.76 65.1267 114.762 64.7657C114.757 64.299 114.826 63.8345 114.968 63.3899C115.06 63.0782 115.244 62.8017 115.496 62.5965C115.704 62.4221 115.967 62.3249 116.239 62.3213C116.51 62.3217 116.773 62.4175 116.982 62.5919C117.22 62.7809 117.397 63.0362 117.491 63.3257C117.649 63.7702 117.728 64.2389 117.725 64.7107ZM116.684 64.7107C116.684 63.9096 116.684 63.4418 116.684 63.3073C116.687 63.0838 116.63 62.8635 116.518 62.6698C116.485 62.6319 116.443 62.6026 116.396 62.5842C116.349 62.5659 116.298 62.5591 116.248 62.5644C116.206 62.5613 116.163 62.5666 116.123 62.58C116.083 62.5934 116.046 62.6146 116.014 62.6423C115.915 62.76 115.857 62.9064 115.849 63.0597C115.817 63.2615 115.803 63.9769 115.803 65.151C115.79 65.5878 115.813 66.025 115.872 66.458C115.887 66.5765 115.937 66.688 116.014 66.7791C116.087 66.8333 116.176 66.8608 116.266 66.857C116.314 66.8605 116.361 66.8527 116.405 66.8344C116.449 66.8161 116.488 66.7877 116.518 66.7515C116.63 66.5762 116.687 66.3721 116.684 66.1645V64.7107Z" fill="white"/>
<path d="M120.846 67.0042H118.145V66.9308C118.702 66.3116 119.206 65.6474 119.654 64.945C119.82 64.6375 119.911 64.2948 119.92 63.9452C119.927 63.7267 119.848 63.5141 119.699 63.3536C119.631 63.2781 119.548 63.2182 119.454 63.1779C119.361 63.1375 119.26 63.1177 119.158 63.1197C118.988 63.1203 118.821 63.1699 118.678 63.2626C118.535 63.3553 118.421 63.4872 118.351 63.6425L118.227 63.5966C118.309 63.2276 118.503 62.8928 118.782 62.6381C119.02 62.4319 119.325 62.3208 119.64 62.3263C119.863 62.3222 120.083 62.3776 120.277 62.4868C120.469 62.5945 120.628 62.7532 120.736 62.9454C120.834 63.1062 120.889 63.2893 120.896 63.4774C120.891 63.7989 120.806 64.1141 120.649 64.3946C120.23 65.0392 119.727 65.6253 119.154 66.1374H120.158C120.311 66.1425 120.465 66.1333 120.617 66.1099C120.686 66.0905 120.749 66.0542 120.8 66.0044C120.874 65.9102 120.936 65.8069 120.984 65.6971H121.107L120.846 67.0042Z" fill="white"/>
<path d="M124.647 64.7107C124.65 65.1462 124.585 65.5795 124.454 65.9948C124.392 66.2134 124.288 66.4175 124.147 66.5956C124.018 66.7453 123.862 66.8697 123.688 66.9625C123.523 67.0545 123.336 67.1019 123.147 67.1001C122.936 67.1031 122.729 67.0441 122.551 66.9304C122.364 66.8054 122.208 66.641 122.092 66.4489C121.975 66.2579 121.887 66.0508 121.831 65.8343C121.733 65.4865 121.684 65.127 121.684 64.7657C121.678 64.2986 121.749 63.8337 121.895 63.3899C121.987 63.0794 122.169 62.8033 122.418 62.5965C122.626 62.4221 122.889 62.3249 123.161 62.3213C123.434 62.3218 123.698 62.4175 123.908 62.5919C124.144 62.7836 124.32 63.038 124.417 63.3257C124.574 63.7705 124.651 64.2392 124.647 64.7107V64.7107ZM123.606 64.7107C123.606 63.9096 123.606 63.4418 123.606 63.3073C123.61 63.0843 123.555 62.8641 123.445 62.6698C123.411 62.6316 123.368 62.602 123.32 62.5837C123.272 62.5653 123.221 62.5587 123.17 62.5644C123.128 62.5614 123.087 62.5668 123.047 62.5802C123.008 62.5936 122.972 62.6147 122.941 62.6423C122.842 62.7604 122.783 62.9063 122.771 63.0597C122.743 63.2615 122.73 63.9586 122.73 65.151C122.716 65.5877 122.737 66.0248 122.794 66.458C122.81 66.5771 122.861 66.6887 122.941 66.7791C123.013 66.8333 123.102 66.8608 123.193 66.857C123.24 66.8601 123.288 66.8522 123.331 66.8339C123.375 66.8156 123.414 66.7874 123.445 66.7515C123.554 66.5756 123.61 66.3716 123.606 66.1645V64.7107Z" fill="white"/>
<path d="M109.717 65.6374C110.031 65.6374 110.286 65.3828 110.286 65.0687C110.286 64.7546 110.031 64.5 109.717 64.5C109.403 64.5 109.148 64.7546 109.148 65.0687C109.148 65.3828 109.403 65.6374 109.717 65.6374Z" fill="white"/>
<path d="M126.272 65.6374C126.586 65.6374 126.841 65.3828 126.841 65.0687C126.841 64.7546 126.586 64.5 126.272 64.5C125.958 64.5 125.703 64.7546 125.703 65.0687C125.703 65.3828 125.958 65.6374 126.272 65.6374Z" fill="white"/>
<path d="M65.0076 107.436C55.2464 107.434 45.7876 104.049 38.2428 97.8553C30.698 91.6621 25.5339 83.0444 23.6304 73.4706C21.7269 63.8968 23.2018 53.9592 27.8037 45.3508C32.4056 36.7425 39.8499 29.9961 48.8682 26.261C57.8865 22.5258 67.9209 22.0331 77.2618 24.8668C86.6026 27.7004 94.672 33.6851 100.095 41.8012C105.518 49.9173 107.96 59.6627 107.003 69.3769C106.047 79.0911 101.752 88.1732 94.8499 95.0759C90.94 99.0069 86.2892 102.123 81.1668 104.245C76.0444 106.366 70.552 107.451 65.0076 107.436V107.436ZM65.0076 24.5954C56.9701 24.5954 49.1132 26.9787 42.4303 31.4441C35.7473 35.9095 30.5386 42.2563 27.4628 49.682C24.387 57.1076 23.5822 65.2786 25.1503 73.1617C26.7183 81.0447 30.5887 88.2857 36.2721 93.9691C41.9554 99.6524 49.1965 103.523 57.0795 105.091C64.9625 106.659 73.1335 105.854 80.5592 102.778C87.9848 99.7025 94.3317 94.4938 98.797 87.8109C103.262 81.128 105.646 73.271 105.646 65.2336C105.634 54.4594 101.348 44.1299 93.7298 36.5114C86.1112 28.8929 75.7818 24.6075 65.0076 24.5954V24.5954Z" fill="#ED1C24"/>
<path d="M79.117 68.907C78.3557 68.7878 77.6128 68.5126 76.8239 68.6089C76.1271 68.679 75.4588 68.9217 74.8794 69.3152C74.7299 69.4441 74.6335 69.6239 74.6088 69.8197C74.5241 70.561 74.7045 71.3083 75.1179 71.9293C75.2768 72.2056 75.3703 72.5146 75.3909 72.8327C75.4116 73.1508 75.359 73.4693 75.2371 73.7638C74.9534 74.496 74.4971 75.1489 73.9071 75.6671C73.476 76.1257 72.9899 76.5018 72.5313 76.9374C71.7182 77.623 71.1686 78.5697 70.9766 79.6158C71.6132 79.7203 72.2576 79.771 72.9028 79.7671C73.82 79.6983 74.7372 79.7671 75.6545 79.4598C76.0305 79.3314 76.1131 79.203 76.1498 78.8499C76.1749 78.338 76.2486 77.8297 76.3699 77.3319C76.5863 76.6208 76.9829 75.9778 77.5211 75.4653C78.1759 74.8914 78.7226 74.2049 79.1354 73.4382C79.2553 73.2534 79.3266 73.0414 79.3427 72.8217C79.3587 72.602 79.3189 72.3818 79.2271 72.1816C78.9474 71.6679 79.0849 71.0947 79.0666 70.5443C79.0469 70.3923 79.0575 70.2378 79.0976 70.0899C79.1377 69.9419 79.2067 69.8034 79.3005 69.6821C79.5665 69.3198 79.4656 68.9621 79.117 68.907Z" fill="#F20000"/>
<path d="M52.7411 76.5893C52.7411 76.282 52.6494 76.0894 52.3375 76.1078C52.0717 76.167 51.8019 76.2069 51.5303 76.227C51.035 76.1674 50.7507 76.5756 50.3379 76.6856C50.2055 76.7366 50.0852 76.8147 49.9848 76.9149C49.1129 77.6329 48.3672 78.4916 47.7788 79.4557C47.328 80.3083 46.9327 81.1891 46.5956 82.0927C46.5735 82.1467 46.5637 82.2049 46.567 82.2631C46.5704 82.3213 46.5867 82.378 46.6149 82.4291C46.6431 82.4801 46.6823 82.5242 46.7298 82.558C46.7772 82.5919 46.8317 82.6147 46.8891 82.6247L48.4713 82.7256C48.7943 82.6431 49.1245 82.5924 49.4574 82.5743C50.2536 82.5788 51.0446 82.4469 51.7963 82.1845C52.0015 82.1158 52.1776 81.9801 52.2962 81.7992C52.4796 81.4331 52.6329 81.0528 52.7548 80.6619C52.8902 80.3329 52.9812 79.9875 53.0254 79.6345C52.9957 79.2406 52.9437 78.8486 52.8695 78.4605C52.7961 77.8505 52.7411 77.2268 52.7411 76.5893Z" fill="#F20000"/>
<path d="M96.7024 72.2687C96.7743 72.6628 96.9139 73.0414 97.1152 73.3877C97.1565 73.4611 97.2253 73.5391 97.3078 73.5253C97.3904 73.5116 97.4179 73.4107 97.4316 73.3281C97.9162 70.4813 97.8461 67.5676 97.2253 64.7474C97.0114 63.852 96.723 62.976 96.363 62.1287C95.9225 61.0317 95.3611 59.9872 94.6891 59.0146C94.2626 58.4093 93.8131 57.8131 93.3132 57.2535C92.6225 56.5043 91.8538 55.8309 91.0201 55.2448C90.8321 55.1026 90.5982 55.0155 90.401 54.8825C90.0112 54.6302 89.6489 54.3413 89.2499 54.1074C86.7395 52.6788 84.0999 51.4903 81.3662 50.5577C79.8711 50.0303 78.3485 49.5809 76.9039 48.925C74.8108 48.0172 73.0648 46.4609 71.9233 44.4856C71.542 43.828 71.0915 43.213 70.5795 42.6511C68.8505 40.7708 65.2366 41.2019 62.9343 41.4174C59.7974 41.7156 56.4036 42.5365 53.6978 44.215C53.019 44.637 52.3678 45.1323 51.712 45.5909C51.4505 45.7743 51.2029 45.9853 50.9598 46.1917C47.0616 49.4937 44.4887 53.5892 42.668 58.3221C42.4112 58.9917 42.4295 59.0422 41.7049 58.9871C40.6337 58.8747 39.5534 59.0872 38.6046 59.5971C36.5087 60.7987 35.0228 62.9679 32.5921 63.5779C31.0011 63.899 29.3487 63.6912 27.8867 62.9863C28.9732 63.9501 30.2884 64.6196 31.707 64.9308C32.9911 65.2164 34.335 65.0325 35.4952 64.4126C36.6417 63.798 37.7195 63.0367 38.866 62.4314C39.157 62.2629 39.4778 62.1523 39.8108 62.1057C40.3698 62.0713 40.9304 62.0713 41.4893 62.1057C41.5421 62.1028 41.5947 62.1129 41.6426 62.1351C41.6904 62.1573 41.7321 62.191 41.7638 62.2332C41.7956 62.2754 41.8164 62.3247 41.8246 62.3769C41.8327 62.4291 41.8278 62.4824 41.8104 62.5323C41.7324 62.8991 41.6315 63.2569 41.5811 63.6283C41.5321 63.9824 41.5107 64.3396 41.5169 64.6969C41.5169 65.339 41.3884 65.9856 41.6453 66.6185C42.1635 67.9256 43.2046 68.719 44.0805 69.7647C45.3096 71.2322 46.7038 72.7411 47.4468 74.5297C47.6257 74.9516 47.9054 75.3094 48.4741 75.1764C49.3042 74.9792 50.3086 74.9837 50.9323 74.3646C51.4246 73.8667 51.7965 73.2627 52.0192 72.5989C52.069 72.4616 52.166 72.3465 52.2929 72.2742C52.4198 72.202 52.5683 72.1773 52.7117 72.2045C52.8906 72.255 53.0786 72.2687 53.2575 72.3238C54.2298 72.6127 55.2296 73.0071 55.7937 73.9106C56.0258 74.3381 56.1661 74.8094 56.2056 75.2943C56.245 75.7792 56.1829 76.267 56.023 76.7265C55.8303 77.4144 52.5971 83.2893 53.7941 83.5278C54.1854 83.6088 54.5826 83.6579 54.9819 83.6746C56.2194 83.6643 57.4444 83.4264 58.5958 82.9729C58.8523 82.9223 59.0886 82.7983 59.2758 82.6159C59.4631 82.4335 59.5933 82.2006 59.6506 81.9456C59.7011 81.6796 59.7653 81.4227 59.8203 81.1567C59.8963 80.9509 59.9381 80.734 59.9442 80.5147C59.7882 79.3544 59.4488 78.3041 59.6277 77.1209C59.7971 75.9521 60.3186 74.8626 61.1228 73.9977C61.7374 73.3419 62.4436 73.4015 63.2737 73.296C64.213 73.1987 65.137 72.9877 66.0254 72.6677C67.3862 72.1104 68.6979 71.44 69.9466 70.6636C72.2168 69.3152 74.4869 67.843 77.0644 67.256C77.784 67.0654 78.5358 67.0295 79.2703 67.1505C80.8663 67.4762 81.834 69.1409 83.109 70.0169C84.6245 71.0436 86.3464 71.7261 88.1538 72.0165C88.8922 72.122 90.0112 71.8514 90.6441 72.2229C90.8014 72.3267 90.9395 72.457 91.0522 72.6081C91.9921 73.7254 92.6705 75.0384 93.0381 76.4513C93.405 77.8822 92.8913 79.203 92.9234 80.6293C92.9215 80.7108 92.906 80.7914 92.8776 80.8678C92.8042 81.1522 92.7262 81.4319 92.6574 81.7163C92.6572 81.745 92.6632 81.7734 92.6751 81.7995C92.687 81.8257 92.7044 81.8489 92.7262 81.8676C92.9234 82.0006 93.1252 82.2253 93.3316 82.2345C94.3818 82.2849 95.4458 82.4409 96.4869 82.0969C96.6841 82.0327 96.895 82.0144 97.1014 81.9639C97.3078 81.9135 97.5188 81.8309 97.56 81.5053C97.5508 80.5532 97.4323 79.6053 97.2069 78.6802C96.7483 76.0248 95.1706 73.9243 95.4091 71.113C95.4637 70.7053 95.5543 70.3032 95.6797 69.9114C95.7898 69.5078 95.9228 69.1088 96.0604 68.6777H95.3312C94.9745 68.7009 94.6164 68.6871 94.2626 68.6365C92.3547 68.2054 91.7035 65.6646 91.2999 64.0503C90.7423 61.8209 90.587 59.5099 90.8413 57.226C90.8826 56.8867 91.254 57.0655 91.4237 57.1802C92.5494 57.8864 93.5608 58.7602 94.4231 59.7714C95.2164 60.7658 95.8634 61.8684 96.3447 63.0459L96.3722 63.1147C97.1106 64.9492 97.3261 67.0267 97.4729 68.9758C97.4889 69.0638 97.4889 69.1539 97.4729 69.2418C97.4285 69.3654 97.3582 69.478 97.2665 69.572C96.9783 69.9515 96.7781 70.3904 96.6805 70.8568C96.5829 71.3232 96.5904 71.8055 96.7024 72.2687V72.2687Z" fill="#F20000"/>
<path d="M55.1626 60.6381C55.148 60.888 55.0584 61.1276 54.9053 61.3256C54.7523 61.5236 54.5431 61.6709 54.305 61.748C53.5643 61.9787 52.7648 61.9298 52.0578 61.6104C51.8524 61.5295 51.6274 61.5125 51.4122 61.5616C51.197 61.6107 51.0016 61.7236 50.8516 61.8856C50.2417 62.3901 49.5996 62.867 48.9392 63.3119C48.5677 63.5412 48.1744 63.7332 47.7651 63.8852C47.0108 64.1696 46.1985 64.2656 45.3986 64.1649C44.9653 64.1197 44.5423 64.0035 44.1466 63.821C43.5688 63.5596 43.0276 63.211 42.4727 62.9037L42.5323 62.7524C42.7923 62.7722 43.0476 62.8326 43.289 62.9312C43.8164 63.2706 44.3943 63.1605 44.963 63.2018C45.3221 63.2226 45.6812 63.1616 46.0133 63.0234C46.3454 62.8851 46.6417 62.6733 46.88 62.4038C47.389 61.8856 47.8339 61.3031 48.3521 60.7895C49.0574 60.047 49.9062 59.4556 50.847 59.0513C51.645 58.7395 52.4751 58.4505 53.3419 58.7074C53.9886 58.9 54.626 59.166 54.8875 59.9044C54.97 60.1474 55.1764 60.3355 55.1626 60.6381Z" fill="black"/>
<path d="M3.83822 65.6374C4.1523 65.6374 4.4069 65.3828 4.4069 65.0687C4.4069 64.7546 4.1523 64.5 3.83822 64.5C3.52414 64.5 3.26953 64.7546 3.26953 65.0687C3.26953 65.3828 3.52414 65.6374 3.83822 65.6374Z" fill="white"/>
</g>
<defs>
<clipPath id="clip0_2_158">
<rect width="130" height="130" rx="65" fill="white"/>
</clipPath>
</defs>
</svg>
